HIERARCHY
ROOT Hips
{
 OFFSET 0.000000 0.000000 0.000000
 CHANNELS 6 Xposition Yposition Zposition Yrotation Xrotation Zrotation
 JOINT Chest
 {
  OFFSET 0.000000 11.395451 -0.039534
  CHANNELS 3 Yrotation Xrotation Zrotation
  JOINT Chest2
  {
   OFFSET 0.000000 9.398669 0.071813
   CHANNELS 3 Yrotation Xrotation Zrotation
   JOINT Chest3
   {
    OFFSET 0.000000 8.489801 0.000000
    CHANNELS 3 Yrotation Xrotation Zrotation
    JOINT Chest4
    {
     OFFSET 0.000000 8.489801 0.000000
     CHANNELS 3 Yrotation Xrotation Zrotation
     JOINT Neck
     {
      OFFSET 0.000000 12.404889 0.000000
      CHANNELS 3 Yrotation Xrotation Zrotation
      JOINT Head
      {
       OFFSET 0.000000 8.903270 0.092239
       CHANNELS 3 Yrotation Xrotation Zrotation
       End Site
       {
        OFFSET 0.000000 17.592497 0.007158
       }
      }
     }
     JOINT RightCollar
     {
      OFFSET -3.196775 6.966722 0.000000
      CHANNELS 3 Yrotation Xrotation Zrotation
      JOINT RightShoulder
      {
       OFFSET -15.955896 0.000000 0.000000
       CHANNELS 3 Yrotation Xrotation Zrotation
       JOINT RightElbow
       {
        OFFSET -24.792472 0.000000 0.000000
        CHANNELS 3 Yrotation Xrotation Zrotation
        JOINT RightWrist
        {
         OFFSET -20.900115 0.000000 0.025002
         CHANNELS 3 Yrotation Xrotation Zrotation
         End Site
         {
          OFFSET -16.056692 0.000000 0.000000
         }
        }
       }
      }
     }
     JOINT LeftCollar
     {
      OFFSET 3.196775 6.966722 0.000000
      CHANNELS 3 Yrotation Xrotation Zrotation
      JOINT LeftShoulder
      {
       OFFSET 15.955896 0.000000 0.000000
       CHANNELS 3 Yrotation Xrotation Zrotation
       JOINT LeftElbow
       {
        OFFSET 24.792472 0.000000 0.000000
        CHANNELS 3 Yrotation Xrotation Zrotation
        JOINT LeftWrist
        {
         OFFSET 20.900115 0.000000 0.025002
         CHANNELS 3 Yrotation Xrotation Zrotation
         End Site
         {
          OFFSET 16.056692 0.000000 0.000000
         }
        }
       }
      }
     }
    }
   }
  }
 }
 JOINT RightHip
 {
  OFFSET -9.568995 0.193718 0.019767
  CHANNELS 3 Yrotation Xrotation Zrotation
  JOINT RightKnee
  {
   OFFSET 0.000000 -56.649296 0.015402
   CHANNELS 3 Yrotation Xrotation Zrotation
   JOINT RightAnkle
   {
    OFFSET 0.000000 -41.365147 0.021264
    CHANNELS 3 Yrotation Xrotation Zrotation
    JOINT RightToe
    {
     OFFSET 0.000000 -7.465940 17.672538
     CHANNELS 3 Yrotation Xrotation Zrotation
     End Site
     {
      OFFSET 0.000000 -1.736315 7.837145
     }
    }
   }
  }
 }
 JOINT LeftHip
 {
  OFFSET 9.568995 0.193718 0.019767
  CHANNELS 3 Yrotation Xrotation Zrotation
  JOINT LeftKnee
  {
   OFFSET 0.000000 -56.649296 0.015402
   CHANNELS 3 Yrotation Xrotation Zrotation
   JOINT LeftAnkle
   {
    OFFSET 0.000000 -41.365147 0.021264
    CHANNELS 3 Yrotation Xrotation Zrotation
    JOINT LeftToe
    {
     OFFSET 0.000000 -7.465940 17.672538
     CHANNELS 3 Yrotation Xrotation Zrotation
     End Site
     {
      OFFSET 0.000000 -1.736315 7.837145
     }
    }
   }
  }
 }
}
MOTION
Frames: 14
Frame Time: 0.016667
-43.035748 104.658135 394.788848 136.311971 0.015322 -0.041094 3.055046 7.044865 -0.113934 1.356905 3.130278 -0.096997 1.356912 3.130287 -0.096993 1.017931 2.347517 -0.079678 1.331843 13.104011 -1.443157 3.117732 -11.792483 -3.283312 3.851713 3.815513 4.785362 8.552825 -19.138942 52.662873 42.086859 -37.326767 27.475376 -8.561274 -17.608534 6.003083 4.929026 4.922737 -7.447598 8.015306 -15.781094 -54.389739 -27.666550 -61.718965 -56.256664 17.105322 -13.952665 13.771691 -3.689451 -7.483437 -7.672263 -15.512587 53.751590 -7.862922 10.427229 2.305733 15.001139 1.351382 -33.115463 -7.709083 10.807718 -12.287827 -8.253295 -4.087697 10.256631 -0.675938 13.930871 -1.493218 4.286385 -0.000000 0.000000 0.000000
-42.105628 104.718024 393.687965 136.382055 -0.265224 0.101630 3.143699 7.172506 -0.213056 1.397679 3.186291 -0.143178 1.397679 3.186291 -0.143178 1.048736 2.389406 -0.114650 1.246413 13.025835 -1.681891 3.056658 -11.931248 -3.704508 3.703282 4.045839 4.667774 8.988684 -18.919315 52.440676 42.430065 -37.950316 27.179557 -8.360541 -17.654107 5.795941 4.848690 5.057736 -7.418607 7.152309 -16.018451 -53.855396 -27.427157 -61.973014 -56.547733 17.052809 -14.098046 13.828206 -4.543437 -9.552269 -7.890641 -12.860176 57.800234 -7.731151 9.698615 4.364658 13.845639 0.452501 -30.189471 -5.864280 11.902721 -11.381763 -8.483653 -6.975018 11.141229 -1.075483 15.678604 -2.703132 4.440150 0.000000 0.000000 0.000000
-41.319725 104.792769 392.662380 136.658752 -0.578282 0.325097 3.189153 7.329448 -0.310647 1.419292 3.255382 -0.188248 1.419270 3.255394 -0.188252 1.065155 2.441130 -0.148722 1.109200 12.977647 -1.880970 2.880053 -12.018287 -4.028116 3.459248 3.792438 4.840671 9.719401 -18.241053 51.702013 42.733183 -38.367494 26.675401 -7.977897 -18.133249 5.711493 4.600707 4.863410 -7.338434 6.456733 -16.075973 -53.593991 -27.472436 -61.927686 -56.420397 16.805486 -14.245170 13.783632 -6.182227 -11.639653 -7.888280 -9.430428 61.227816 -7.385654 9.401169 4.188358 13.153915 -0.428563 -23.943745 -5.423144 12.528474 -10.213933 -8.551290 -5.504913 11.202632 -1.095333 13.452270 -3.347047 4.761152 -0.000000 -0.000000 0.000000
-40.599559 104.873386 391.687417 137.060403 -0.914469 0.553232 3.209219 7.499529 -0.377860 1.429248 3.330524 -0.219541 1.429223 3.330550 -0.219544 1.072797 2.497428 -0.172411 0.944361 12.946314 -2.058168 2.641413 -12.076363 -4.298150 3.164219 3.290508 5.167713 10.595798 -17.297976 50.670975 43.017497 -38.691540 26.064620 -7.492957 -18.857490 5.681674 4.300535 4.497642 -7.238607 5.796912 -16.052986 -53.486144 -27.642620 -61.721247 -56.099887 16.451349 -14.394525 13.698567 -8.246193 -13.703379 -7.643858 -5.286727 64.107111 -6.596638 9.214731 2.648938 12.581387 -1.288895 -15.554413 -5.494757 12.842420 -8.933081 -8.493280 -2.055692 10.869739 -1.004708 9.460792 -3.730435 5.202506 0.000000 0.000000 0.000000
-39.849941 104.962631 390.726671 137.607734 -1.207078 0.662119 3.135621 7.611155 -0.371564 1.396549 3.380179 -0.216297 1.396549 3.380179 -0.216297 1.048306 2.534656 -0.169909 0.823603 12.947501 -2.192392 2.467286 -12.074021 -4.503289 2.999038 2.905961 5.393389 10.973444 -16.594465 49.934745 43.180541 -38.848727 25.688423 -7.062782 -19.469043 5.665074 4.157545 4.274392 -7.183070 5.136807 -16.147684 -53.537651 -27.858211 -61.521214 -55.667407 16.179542 -14.482372 13.645520 -9.853813 -15.534544 -7.274752 -2.217821 66.171926 -6.089589 9.085535 1.209761 12.021266 -1.682525 -8.574578 -5.070948 12.555118 -7.888147 -8.380911 0.163826 10.757841 -0.939810 7.079481 -4.226968 5.416339 0.000000 0.000000 0.000000
-39.022528 105.064148 389.770253 138.360523 -1.435407 0.568365 2.904927 7.634203 -0.249232 1.292250 3.391289 -0.158402 1.292259 3.391256 -0.158399 0.969796 2.543109 -0.125941 0.777278 13.008170 -2.280565 2.412579 -11.959810 -4.648955 3.091626 2.814262 5.398962 10.521146 -16.446227 49.721159 43.126362 -38.755610 25.738885 -6.739828 -19.827816 5.657041 4.288273 4.364600 -7.212104 4.444904 -16.480519 -53.799550 -28.140760 -61.404203 -55.074422 16.057302 -14.468327 13.656673 -10.695523 -17.018348 -6.799837 -1.900423 67.232917 -7.148305 9.131741 0.392878 11.516728 -1.322828 -4.390618 -3.532455 11.253262 -7.304602 -8.260179 -0.615653 11.220279 -0.832805 8.395313 -5.085947 5.089330 -0.000000 -0.000000 0.000000
-38.165662 105.174294 388.828053 139.261033 -1.615238 0.354831 2.579842 7.597477 -0.056202 1.144914 3.376237 -0.067244 1.144911 3.376214 -0.067241 0.858805 2.532039 -0.056745 0.775062 13.100362 -2.325430 2.422188 -11.786857 -4.729088 3.317902 2.841553 5.305947 9.589286 -16.556274 49.771204 42.956987 -38.498702 26.025548 -6.474615 -20.074469 5.672705 4.577185 4.598245 -7.281402 3.755610 -16.933993 -54.216283 -28.475736 -61.291800 -54.363821 16.019996 -14.394061 13.695862 -11.081253 -18.271582 -6.262941 -3.249276 67.471898 -9.173581 9.252051 -0.340256 11.055810 -0.588190 -1.698801 -1.506460 9.358647 -6.947215 -8.113844 -2.612512 11.903562 -0.699744 11.340982 -6.047966 4.451920 0.000000 -0.000000 -0.000000
-37.329175 105.284894 387.893330 140.154005 -1.735736 0.149042 2.282059 7.517227 0.118250 1.010080 3.341541 0.015398 1.010080 3.341541 0.015398 0.757261 2.506189 0.006017 0.797998 13.156949 -2.314706 2.458577 -11.681224 -4.715656 3.485619 2.829333 5.218745 8.580966 -16.535257 49.900762 42.870390 -38.265074 26.318495 -6.272771 -20.270486 5.711170 4.887472 4.776830 -7.329005 3.129464 -17.345688 -54.631687 -28.737809 -61.122367 -53.745516 16.060284 -14.319966 13.729798 -11.036146 -19.434914 -5.857334 -4.108493 67.220456 -10.266547 9.083988 -1.104954 10.492309 0.000000 0.000000 -0.000000 7.837041 -6.481324 -7.921073 -3.685606 12.319985 -0.613388 13.042727 -6.830642 4.031957 0.000000 0.000000 0.000000
-36.545063 105.399594 386.960672 140.985574 -1.776925 -0.000857 2.063338 7.374216 0.246405 0.911201 3.278517 0.076424 0.911223 3.278520 0.076423 0.682834 2.459009 0.052408 0.841448 13.158530 -2.234532 2.508259 -11.679736 -4.581334 3.519471 2.708042 5.159453 7.519960 -16.224614 50.106586 42.955164 -38.100713 26.564058 -6.176240 -20.403379 5.789322 5.203780 4.807711 -7.340701 2.599013 -17.651259 -55.033200 -28.842948 -60.844584 -53.316038 16.218910 -14.256078 13.755575 -10.393578 -20.567213 -5.704803 -3.759539 66.610117 -9.629171 8.383317 -1.971584 9.649900 0.161627 0.611489 0.409572 7.139064 -5.755670 -7.631081 -2.510516 12.164594 -0.585213 11.812823 -7.318865 4.188019 0.000000 -0.000000 0.000000
-35.781330 105.514749 386.035493 141.808812 -1.760161 -0.139962 1.871953 7.187593 0.355340 0.824817 3.195905 0.128559 0.824838 3.195906 0.128560 0.617808 2.397106 0.092078 0.909074 13.123379 -2.099033 2.582877 -11.747636 -4.353523 3.494752 2.546592 5.103694 6.387938 -15.777163 50.377682 43.118855 -37.962336 26.819600 -6.143000 -20.484852 5.891686 5.541679 4.782127 -7.331756 2.134657 -17.910905 -55.440203 -28.875196 -60.512238 -52.978800 16.454824 -14.193519 13.776554 -9.295968 -21.608271 -5.711759 -3.148748 65.485005 -8.280870 7.437084 -2.849976 8.658531 0.079472 0.303237 0.208846 6.816973 -4.933451 -7.276803 -0.420413 11.739194 -0.631124 9.318698 -7.654978 4.627920 0.000000 0.000000 -0.000000
-34.991821 105.611246 385.127292 142.628471 -1.740031 -0.280865 1.675586 7.031402 0.439764 0.736585 3.126635 0.169638 0.736585 3.126635 0.169638 0.551433 2.345185 0.123426 0.994804 13.041089 -1.938413 2.683651 -11.903255 -4.087479 3.444203 2.392041 5.083994 5.525410 -15.280594 50.523794 43.283277 -37.904104 27.025048 -6.051899 -20.612353 5.966314 5.811183 4.775546 -7.288492 1.697158 -18.149719 -55.742448 -28.954045 -60.222479 -52.660282 16.637247 -14.163581 13.769069 -8.236602 -22.517228 -5.724881 -2.591222 63.807319 -6.996499 6.661221 -3.607873 7.830439 0.000000 0.000000 0.000000 6.487590 -4.159841 -6.966984 0.755977 11.425588 -0.709067 7.702235 -8.029732 4.958254 0.000000 -0.000000 -0.000000
-34.145222 105.682426 384.245346 143.449046 -1.736873 -0.441116 1.462122 6.931315 0.493514 0.641214 3.082123 0.197047 0.641208 3.082124 0.197044 0.479792 2.311804 0.144508 1.109683 12.897568 -1.743875 2.828374 -12.172713 -3.771567 3.359265 2.267672 5.131737 5.113114 -14.740311 50.462716 43.450661 -37.929426 27.119969 -5.845518 -20.849256 6.008045 5.970966 4.838438 -7.185496 1.309702 -18.394298 -55.894014 -29.117219 -60.009657 -52.375255 16.730520 -14.191589 13.710542 -7.431003 -23.309375 -5.638174 -2.148843 61.595348 -6.061255 6.163151 -4.207037 7.308723 0.000000 -0.000000 0.000000 6.058589 -3.493500 -6.763049 -0.151338 11.384725 -0.746927 8.192501 -8.547055 4.949042 0.000000 0.000000 0.000000
-33.272847 105.734948 383.380379 144.266074 -1.730033 -0.603339 1.244328 6.862644 0.524086 0.544253 3.051454 0.214059 0.544254 3.051452 0.214056 0.407025 2.288782 0.157782 1.241508 12.706082 -1.525564 2.996984 -12.531529 -3.419254 3.247340 2.149992 5.216024 4.965112 -14.156764 50.292975 43.620202 -38.033192 27.162070 -5.580178 -21.131771 6.020416 6.062558 4.919613 -7.049405 0.942470 -18.619852 -55.934633 -29.325635 -59.839333 -52.110042 16.769831 -14.251585 13.623518 -6.671181 -23.972700 -5.538777 -1.820276 58.839771 -5.278731 5.806236 -4.694638 6.965128 0.000000 0.000000 0.000000 5.618956 -2.873169 -6.606447 -1.960703 11.440415 -0.750075 9.569678 -9.104164 4.799363 0.000000 -0.000000 0.000000
-32.422482 105.769679 382.514066 145.071075 -1.713173 -0.728776 1.027558 6.823736 0.547757 0.447791 3.033975 0.227868 0.447791 3.033975 0.227868 0.334632 2.275650 0.168636 1.351034 12.498798 -1.341840 3.137521 -12.919245 -3.123859 3.165234 2.015414 5.276839 4.868730 -13.615626 50.104686 43.709944 -38.255282 27.268155 -5.305312 -21.366369 5.965420 6.119835 4.942898 -6.945295 0.473486 -18.776315 -55.879478 -29.580340 -59.704052 -51.751434 16.730795 -14.297140 13.551594 -5.823481 -24.426569 -5.544000 -1.700103 55.489315 -4.580910 5.609903 -5.074704 6.737734 0.000000 0.000000 0.000000 5.055144 -2.258315 -6.437106 -2.964322 11.445274 -0.733838 10.299316 -9.623393 4.769120 0.000000 -0.000000 0.000000
